<svg width="18" height="19" viewBox="0 0 18 19" fill="none" xmlns="http://www.w3.org/2000/svg">
<path d="M17.6425 8.73831C16.9363 7.2505 16.0959 6.0371 15.1213 5.09813L14.0992 6.12027C14.9327 6.91681 15.6587 7.95885 16.2865 9.25661C14.6151 12.716 12.2425 14.3593 9.00012 14.3593C8.02686 14.3593 7.13041 14.2094 6.31076 13.9097L5.20324 15.0172C6.34163 15.5429 7.60726 15.8057 9.00012 15.8057C12.8613 15.8057 15.7421 13.7948 17.6425 9.77291C17.7189 9.61116 17.7586 9.43449 17.7586 9.25561C17.7586 9.07672 17.7189 8.90006 17.6425 8.73831ZM16.3655 2.29688L15.509 1.43947C15.4941 1.42453 15.4764 1.41267 15.4569 1.40458C15.4374 1.3965 15.4165 1.39233 15.3953 1.39233C15.3742 1.39233 15.3533 1.3965 15.3338 1.40458C15.3143 1.41267 15.2966 1.42453 15.2816 1.43947L13.0845 3.63563C11.8731 3.01688 10.5116 2.70751 9.00012 2.70751C5.13896 2.70751 2.25815 4.71844 0.357705 8.74032C0.281317 8.90207 0.241699 9.07873 0.241699 9.25762C0.241699 9.4365 0.281317 9.61316 0.357705 9.77492C1.11695 11.374 2.03101 12.6558 3.09989 13.6202L0.974045 15.7455C0.943928 15.7756 0.92701 15.8165 0.92701 15.8591C0.92701 15.9017 0.943928 15.9425 0.974045 15.9727L1.83166 16.8303C1.86179 16.8604 1.90266 16.8773 1.94526 16.8773C1.98787 16.8773 2.02873 16.8604 2.05887 16.8303L16.3655 2.52429C16.3804 2.50936 16.3922 2.49164 16.4003 2.47213C16.4084 2.45262 16.4126 2.43171 16.4126 2.41059C16.4126 2.38947 16.4084 2.36855 16.4003 2.34904C16.3922 2.32953 16.3804 2.31181 16.3655 2.29688ZM1.71373 9.25661C3.38717 5.79724 5.75971 4.15393 9.00012 4.15393C10.0958 4.15393 11.092 4.34197 11.9958 4.72427L10.5836 6.13655C9.91472 5.77969 9.14889 5.64724 8.39905 5.75876C7.64922 5.87027 6.95507 6.21984 6.41903 6.75588C5.88298 7.29193 5.53342 7.98607 5.4219 8.73591C5.31039 9.48575 5.44283 10.2516 5.79969 10.9204L4.12384 12.5963C3.19632 11.7776 2.39677 10.6685 1.71373 9.25661ZM6.66976 9.25661C6.67011 8.90237 6.75402 8.5532 6.91467 8.23748C7.07532 7.92175 7.30818 7.64838 7.59433 7.43956C7.88048 7.23073 8.21186 7.09236 8.56154 7.03567C8.91122 6.97898 9.26934 7.00557 9.60681 7.11329L6.77643 9.94367C6.70549 9.72156 6.6695 9.48977 6.66976 9.25661Z" fill="#858585"/>
<path d="M8.92011 11.5099C8.8506 11.5099 8.78209 11.5067 8.71419 11.5005L7.65308 12.5616C8.29129 12.806 8.98665 12.8604 9.65507 12.718C10.3235 12.5757 10.9364 12.2427 11.4196 11.7595C11.9029 11.2762 12.2358 10.6633 12.3782 9.99492C12.5205 9.32649 12.4662 8.63114 12.2218 7.99292L11.1607 9.05404C11.1669 9.12194 11.1701 9.19044 11.1701 9.25995C11.1703 9.55547 11.1122 9.84812 10.9992 10.1212C10.8861 10.3942 10.7204 10.6423 10.5115 10.8513C10.3025 11.0603 10.0544 11.226 9.78133 11.339C9.50828 11.452 9.21563 11.5101 8.92011 11.5099Z" fill="#858585"/>
</svg>
