<svg width="18" height="19" viewBox="0 0 18 19" fill="none" xmlns="http://www.w3.org/2000/svg">
<path d="M14.625 8.41479H13.4297V4.47729C13.4297 3.23452 12.4225 2.22729 11.1797 2.22729H6.82031C5.57754 2.22729 4.57031 3.23452 4.57031 4.47729V8.41479H3.375C3.06387 8.41479 2.8125 8.66616 2.8125 8.97729V15.7273C2.8125 16.0384 3.06387 16.2898 3.375 16.2898H14.625C14.9361 16.2898 15.1875 16.0384 15.1875 15.7273V8.97729C15.1875 8.66616 14.9361 8.41479 14.625 8.41479ZM5.83594 4.47729C5.83594 3.93413 6.27715 3.49292 6.82031 3.49292H11.1797C11.7229 3.49292 12.1641 3.93413 12.1641 4.47729V8.41479H5.83594V4.47729ZM13.9219 15.0242H4.07812V9.68042H13.9219V15.0242ZM8.50781 12.5808V13.5125C8.50781 13.5898 8.57109 13.6531 8.64844 13.6531H9.35156C9.42891 13.6531 9.49219 13.5898 9.49219 13.5125V12.5808C9.63729 12.4766 9.74559 12.3291 9.80151 12.1595C9.85743 11.9898 9.85807 11.8068 9.80335 11.6368C9.74863 11.4667 9.64137 11.3184 9.49701 11.2132C9.35265 11.108 9.17863 11.0513 9 11.0513C8.82137 11.0513 8.64735 11.108 8.50299 11.2132C8.35863 11.3184 8.25137 11.4667 8.19665 11.6368C8.14193 11.8068 8.14257 11.9898 8.19849 12.1595C8.25441 12.3291 8.36271 12.4766 8.50781 12.5808Z" fill="#262626"/>
</svg>
