<svg width="18" height="19" viewBox="0 0 18 19" fill="none" xmlns="http://www.w3.org/2000/svg">
<path d="M15.0904 13.6813C14.7588 12.8958 14.2776 12.1824 13.6736 11.5807C13.0715 10.9772 12.3581 10.4961 11.5731 10.1639C11.566 10.1604 11.559 10.1586 11.552 10.1551C12.6471 9.36407 13.359 8.0756 13.359 6.62189C13.359 4.21368 11.4078 2.26251 8.99962 2.26251C6.59141 2.26251 4.64024 4.21368 4.64024 6.62189C4.64024 8.0756 5.35216 9.36407 6.44727 10.1568C6.44024 10.1604 6.43321 10.1621 6.42618 10.1656C5.63868 10.4979 4.93204 10.9742 4.32559 11.5824C3.72215 12.1846 3.24103 12.8979 2.9088 13.683C2.58241 14.4516 2.40638 15.2757 2.39024 16.1106C2.38977 16.1293 2.39306 16.148 2.39992 16.1655C2.40678 16.1829 2.41706 16.1988 2.43017 16.2123C2.44327 16.2257 2.45893 16.2364 2.47623 16.2437C2.49352 16.251 2.5121 16.2547 2.53087 16.2547H3.58555C3.6629 16.2547 3.72442 16.1932 3.72618 16.1176C3.76134 14.7606 4.30626 13.4897 5.26954 12.5264C6.26622 11.5297 7.58985 10.9813 8.99962 10.9813C10.4094 10.9813 11.733 11.5297 12.7297 12.5264C13.693 13.4897 14.2379 14.7606 14.2731 16.1176C14.2748 16.1949 14.3363 16.2547 14.4137 16.2547H15.4684C15.4871 16.2547 15.5057 16.251 15.523 16.2437C15.5403 16.2364 15.556 16.2257 15.5691 16.2123C15.5822 16.1988 15.5925 16.1829 15.5993 16.1655C15.6062 16.148 15.6095 16.1293 15.609 16.1106C15.5914 15.2703 15.4174 14.4529 15.0904 13.6813ZM8.99962 9.64532C8.19278 9.64532 7.43341 9.33068 6.86212 8.75939C6.29083 8.1881 5.97618 7.42872 5.97618 6.62189C5.97618 5.81505 6.29083 5.05568 6.86212 4.48439C7.43341 3.9131 8.19278 3.59845 8.99962 3.59845C9.80645 3.59845 10.5658 3.9131 11.1371 4.48439C11.7084 5.05568 12.0231 5.81505 12.0231 6.62189C12.0231 7.42872 11.7084 8.1881 11.1371 8.75939C10.5658 9.33068 9.80645 9.64532 8.99962 9.64532Z" fill="#262626"/>
</svg>
